<?xml version="1.0" encoding="utf-8"?>
<!-- Generator: Adobe Illustrator 22.1.0, SVG Export Plug-In . SVG Version: 6.00 Build 0)  -->
<svg version="1.0" id="Layer_1" xmlns="http://www.w3.org/2000/svg" xmlns:xlink="http://www.w3.org/1999/xlink" x="0px" y="0px"
	 viewBox="0 0 255.1 141.7" style="enable-background:new 0 0 255.1 141.7;" xml:space="preserve">
<style type="text/css">
	.st0{fill:#FFFFFF;}
	.st1{fill:#ED2028;}
</style>
<g>
	<path class="st0" d="M37.5,128l-4.5-8.7h-4.4l0,8.7h-7.1v-28h13c0.6,0,1.3,0.1,1.9,0.4c0.6,0.3,1.3,0.6,1.9,1
		c0.6,0.4,1.2,0.9,1.7,1.4c0.5,0.5,0.9,1.1,1.3,1.6c0.4,0.7,0.8,1.5,1,2.4c0.2,0.9,0.3,1.8,0.3,2.7c0,1.4-0.3,2.7-0.9,3.9
		c-0.6,1.2-1.4,2.2-2.5,3l6.1,11.5H37.5z M32.4,106.2h-4v6h4c0.4,0,0.8-0.1,1.1-0.2c0.4-0.2,0.7-0.4,0.9-0.6c0.3-0.3,0.5-0.6,0.6-1
		c0.2-0.4,0.2-0.8,0.2-1.2c0-0.4-0.1-0.8-0.2-1.2c-0.2-0.4-0.4-0.7-0.6-1c-0.3-0.3-0.6-0.5-0.9-0.6
		C33.2,106.3,32.8,106.2,32.4,106.2z"/>
	<path class="st0" d="M65.6,128l-1.3-3.9h-8L55,128h-7.3l9.6-28h6.1l9.6,28H65.6z M60.3,110.2l-2.1,7.4h4.1L60.3,110.2z"/>
	<path class="st0" d="M87.2,128H75.6v-28h11.6c1.8,0,3.5,0.4,5.1,1.1c1.6,0.7,3,1.7,4.1,3c1.2,1.3,2.1,2.7,2.8,4.5
		c0.7,1.7,1,3.5,1,5.4c0,1.9-0.3,3.7-1,5.4c-0.7,1.7-1.6,3.2-2.8,4.5c-1.2,1.3-2.6,2.3-4.1,3C90.6,127.6,89,128,87.2,128z
		 M86.4,106.8h-4v14.4h4c0.9,0,1.8-0.2,2.6-0.6c0.8-0.4,1.5-0.9,2.1-1.5c0.6-0.6,1.1-1.4,1.4-2.3c0.3-0.9,0.5-1.8,0.5-2.8
		c0-1-0.2-1.9-0.5-2.8c-0.3-0.9-0.8-1.6-1.4-2.3c-0.6-0.6-1.3-1.2-2.1-1.5C88.2,107,87.3,106.8,86.4,106.8z"/>
	<path class="st0" d="M104,128v-28h7v28H104z"/>
	<path class="st0" d="M128.7,128c-1.9,0-3.7-0.4-5.4-1.1c-1.7-0.7-3.1-1.7-4.4-3c-1.2-1.3-2.2-2.7-2.9-4.5c-0.7-1.7-1.1-3.5-1.1-5.5
		c0-1.9,0.4-3.8,1.1-5.5c0.7-1.7,1.7-3.2,2.9-4.5c1.2-1.3,2.7-2.3,4.4-3c1.7-0.7,3.5-1.1,5.4-1.1c1.9,0,3.7,0.4,5.3,1.1
		c1.7,0.7,3.1,1.7,4.4,3c1.2,1.3,2.2,2.7,2.9,4.5c0.7,1.7,1.1,3.5,1.1,5.5c0,1.9-0.4,3.8-1.1,5.5c-0.7,1.7-1.7,3.2-2.9,4.5
		c-1.2,1.3-2.7,2.3-4.4,3C132.3,127.6,130.6,128,128.7,128z M128.7,106.7c-1,0-1.9,0.2-2.7,0.6c-0.8,0.4-1.5,0.9-2.1,1.6
		c-0.6,0.7-1.1,1.4-1.4,2.3c-0.3,0.9-0.5,1.8-0.5,2.8c0,1,0.2,1.9,0.5,2.8c0.3,0.9,0.8,1.7,1.4,2.3c0.6,0.7,1.3,1.2,2.1,1.6
		c0.8,0.4,1.7,0.6,2.7,0.6c1,0,1.9-0.2,2.7-0.6c0.8-0.4,1.5-0.9,2.1-1.6c0.6-0.7,1.1-1.4,1.4-2.3c0.3-0.9,0.5-1.8,0.5-2.8
		c0-1-0.2-1.9-0.5-2.8c-0.3-0.9-0.8-1.6-1.4-2.3c-0.6-0.7-1.3-1.2-2.1-1.6C130.5,106.9,129.6,106.7,128.7,106.7z"/>
	<path class="st0" d="M149,127.9c-0.4,0-0.8-0.1-1.2-0.2c-0.4-0.2-0.7-0.4-1-0.7c-0.3-0.3-0.5-0.6-0.7-1c-0.2-0.4-0.2-0.8-0.2-1.2
		c0-0.4,0.1-0.8,0.2-1.2c0.2-0.4,0.4-0.7,0.7-1c0.3-0.3,0.6-0.5,1-0.7c0.4-0.2,0.8-0.2,1.2-0.2c0.4,0,0.8,0.1,1.2,0.2
		c0.4,0.2,0.7,0.4,1,0.7c0.3,0.3,0.5,0.6,0.7,1c0.2,0.4,0.2,0.8,0.2,1.2c0,0.9-0.3,1.6-0.9,2.2C150.6,127.6,149.9,127.9,149,127.9z"
		/>
	<path class="st0" d="M168.6,128c-1.9,0-3.7-0.4-5.3-1.1c-1.7-0.7-3.1-1.8-4.3-3c-1.2-1.3-2.2-2.8-2.9-4.5c-0.7-1.7-1.1-3.5-1.1-5.4
		c0-1.9,0.4-3.7,1.1-5.4c0.7-1.7,1.7-3.2,2.9-4.5c1.2-1.3,2.7-2.3,4.3-3c1.7-0.7,3.4-1.1,5.3-1.1c1.7,0,3.4,0.3,5,1
		c1.6,0.6,3.1,1.6,4.4,2.8l-5.3,4.8c-1.3-0.9-2.6-1.4-4.1-1.4c-0.9,0-1.8,0.2-2.6,0.5c-0.8,0.4-1.5,0.9-2.1,1.5
		c-0.6,0.6-1,1.4-1.4,2.2c-0.3,0.8-0.5,1.7-0.5,2.6c0,0.9,0.2,1.8,0.5,2.6c0.3,0.8,0.8,1.6,1.4,2.2c0.6,0.6,1.3,1.1,2,1.5
		c0.8,0.4,1.6,0.6,2.6,0.6c1.1,0,2.1-0.2,3-0.8c0.9-0.5,1.7-1.2,2.4-2.1l5.5,4.6c-1.4,1.7-3,3.1-4.9,4
		C172.8,127.5,170.8,128,168.6,128z"/>
	<path class="st0" d="M193.4,128c-1.9,0-3.7-0.4-5.4-1.1c-1.7-0.7-3.1-1.7-4.4-3c-1.2-1.3-2.2-2.7-2.9-4.5c-0.7-1.7-1.1-3.5-1.1-5.5
		c0-1.9,0.4-3.8,1.1-5.5c0.7-1.7,1.7-3.2,2.9-4.5c1.2-1.3,2.7-2.3,4.4-3c1.7-0.7,3.5-1.1,5.4-1.1c1.9,0,3.7,0.4,5.3,1.1
		c1.7,0.7,3.1,1.7,4.4,3c1.2,1.3,2.2,2.7,2.9,4.5c0.7,1.7,1.1,3.5,1.1,5.5c0,1.9-0.4,3.8-1.1,5.5c-0.7,1.7-1.7,3.2-2.9,4.5
		c-1.2,1.3-2.7,2.3-4.4,3C197.1,127.6,195.3,128,193.4,128z M193.4,106.7c-1,0-1.9,0.2-2.7,0.6c-0.8,0.4-1.5,0.9-2.1,1.6
		c-0.6,0.7-1.1,1.4-1.4,2.3c-0.3,0.9-0.5,1.8-0.5,2.8c0,1,0.2,1.9,0.5,2.8c0.3,0.9,0.8,1.7,1.4,2.3c0.6,0.7,1.3,1.2,2.1,1.6
		c0.8,0.4,1.7,0.6,2.7,0.6c1,0,1.9-0.2,2.7-0.6c0.8-0.4,1.5-0.9,2.1-1.6c0.6-0.7,1.1-1.4,1.4-2.3c0.3-0.9,0.5-1.8,0.5-2.8
		c0-1-0.2-1.9-0.5-2.8c-0.3-0.9-0.8-1.6-1.4-2.3c-0.6-0.7-1.3-1.2-2.1-1.6C195.3,106.9,194.4,106.7,193.4,106.7z"/>
	<path class="st0" d="M230.2,127.9v-14.3l-5.5,9.8c-0.1,0.1-0.2,0.2-0.3,0.3c-0.2,0-0.3,0.1-0.4,0.1c-0.1,0-0.3,0-0.4-0.1
		c-0.2,0-0.3-0.1-0.3-0.3l-5.5-9.8v14.3h-6.8V100h6.3c0.2,0,0.4,0.1,0.6,0.3l6.1,11l6.2-11c0.2-0.2,0.3-0.3,0.5-0.3h6.4v27.9H230.2z
		"/>
</g>
<g>
	<polygon class="st1" points="18.9,13 18.9,30 43.8,30 43.8,93.8 64.2,93.8 64.2,30 89,30 89,13 	"/>
	<path class="st1" d="M214.1,46l-18.5-4.5c-4.9-1.1-7.2-2.4-7.2-6.5c0-3.8,1.8-5.8,11.4-5.8c13.1,0,13.5,2.9,14.3,8.7l0.2,1.6h20.2
		l0-1.6c-0.4-16.6-11.9-25-34-25c-21.7,0-32.7,7.9-32.7,23.5c0,6.7,2,11.8,6.2,15.5c3.2,2.9,7.5,4.8,13.9,6.3l20.1,4.9
		c7,1.7,8.3,3.9,8.3,7.3c0,5.3-3.4,7.1-13.4,7.1c-15.8,0-16.1-3.7-16.7-10.5l-0.1-1.5h-20.3l0.1,1.7c0.6,9,3.3,15.2,8.6,19.4
		c5.9,4.8,15.2,7.1,28.5,7.1c5.8,0,14.4-0.4,21.5-3.8c8.3-3.9,12.4-10.9,12.4-20.7C237,52.8,225.2,48.6,214.1,46z"/>
	<rect x="66.2" y="76.9" class="st1" width="22.8" height="16.9"/>
	<polygon class="st1" points="130.5,60.7 130.5,43.8 148.3,43.8 171.1,13 146.3,13 130.5,36.7 114.1,13 90,13 118.4,52.3 90,93.8 
		114.1,93.8 130.5,68.7 146.3,93.8 171.1,93.8 147.9,60.7 	"/>
</g>
</svg>
