<?xml version="1.0" encoding="utf-8"?>
<!-- Generator: Adobe Illustrator 22.1.0, SVG Export Plug-In . SVG Version: 6.00 Build 0)  -->
<svg version="1.1" id="Capa_1" xmlns="http://www.w3.org/2000/svg" xmlns:xlink="http://www.w3.org/1999/xlink" x="0px" y="0px"
	 viewBox="0 0 132 132" style="enable-background:new 0 0 132 132;" xml:space="preserve">
<style type="text/css">
	.st0{fill:#FFFFFF;stroke:#BABABA;stroke-miterlimit:10;}
	.st1{fill:#606060;}
</style>
<rect x="0.7" y="0.7" class="st0" width="130.7" height="130.7"/>
<g>
	<path class="st1" d="M53.6,57l4.2-12.3H60l-5.5,14.9h-1.7l-5.5-14.9h2.1L53.6,57z"/>
	<path class="st1" d="M70.4,52.7H64V58h7.5v1.6H62V44.7h9.3v1.6H64v4.8h6.4V52.7z"/>
	<path class="st1" d="M79.3,53.6h-3.5v6h-2V44.7h4.9c1.7,0,3,0.4,3.9,1.1c0.9,0.8,1.4,1.9,1.4,3.3c0,0.9-0.3,1.7-0.8,2.4
		S82,52.7,81.1,53l3.5,6.3v0.1h-2.1L79.3,53.6z M75.8,52h3c1,0,1.7-0.3,2.3-0.8c0.6-0.5,0.9-1.2,0.9-2c0-0.9-0.3-1.6-0.8-2.1
		s-1.3-0.7-2.4-0.7h-3V52z"/>
	<path class="st1" d="M44.5,71.4h-4.8v13.3h-1.9V71.4H33v-1.6h11.5V71.4z"/>
	<path class="st1" d="M57.8,77.7c0,1.5-0.2,2.7-0.7,3.8S55.9,83.4,55,84s-1.9,0.9-3.1,0.9c-1.2,0-2.2-0.3-3.1-0.9
		c-0.9-0.6-1.6-1.4-2.1-2.5s-0.8-2.3-0.8-3.7v-1.1c0-1.4,0.2-2.7,0.7-3.8s1.2-1.9,2.1-2.5c0.9-0.6,1.9-0.9,3.1-0.9
		c1.2,0,2.2,0.3,3.1,0.9c0.9,0.6,1.6,1.4,2.1,2.5s0.7,2.4,0.7,3.8L57.8,77.7L57.8,77.7z M55.9,76.7c0-1.8-0.4-3.1-1.1-4.1
		c-0.7-0.9-1.7-1.4-3-1.4c-1.2,0-2.2,0.5-2.9,1.4s-1.1,2.3-1.1,3.9v1.1c0,1.7,0.4,3,1.1,4c0.7,1,1.7,1.5,3,1.5s2.2-0.5,2.9-1.4
		s1.1-2.2,1.1-4V76.7z"/>
	<path class="st1" d="M60.8,84.6V69.8H65c1.3,0,2.4,0.3,3.4,0.9s1.8,1.4,2.3,2.4s0.8,2.3,0.8,3.6v0.9c0,1.4-0.3,2.6-0.8,3.7
		s-1.3,1.9-2.3,2.4s-2.2,0.9-3.5,0.9C64.9,84.6,60.8,84.6,60.8,84.6z M62.7,71.4V83h2.1c1.5,0,2.7-0.5,3.5-1.4s1.3-2.3,1.3-4v-0.9
		c0-1.7-0.4-3-1.2-3.9c-0.8-0.9-1.9-1.4-3.4-1.4C65,71.4,62.7,71.4,62.7,71.4z"/>
	<path class="st1" d="M85.9,77.7c0,1.5-0.2,2.7-0.7,3.8c-0.5,1.1-1.2,1.9-2.1,2.5s-1.9,0.9-3.1,0.9s-2.2-0.3-3.1-0.9
		s-1.6-1.4-2.1-2.5S74,79.2,74,77.8v-1.1c0-1.4,0.2-2.7,0.7-3.8s1.2-1.9,2.1-2.5s1.9-0.9,3.1-0.9s2.2,0.3,3.1,0.9s1.6,1.4,2.1,2.5
		s0.7,2.4,0.7,3.8v1H85.9z M83.9,76.7c0-1.8-0.4-3.1-1.1-4.1c-0.7-0.9-1.7-1.4-3-1.4c-1.2,0-2.2,0.5-2.9,1.4
		c-0.7,0.9-1.1,2.3-1.1,3.9v1.1c0,1.7,0.4,3,1.1,4s1.7,1.5,3,1.5s2.2-0.5,2.9-1.4c0.7-0.9,1.1-2.2,1.1-4V76.7z"/>
	<path class="st1" d="M93.2,78c-1.7-0.5-2.9-1.1-3.7-1.8c-0.8-0.7-1.1-1.6-1.1-2.6c0-1.2,0.5-2.1,1.4-2.9s2.2-1.1,3.6-1.1
		c1,0,1.9,0.2,2.7,0.6s1.4,0.9,1.9,1.6c0.4,0.7,0.7,1.5,0.7,2.3h-2c0-0.9-0.3-1.6-0.9-2.1s-1.4-0.8-2.4-0.8s-1.7,0.2-2.3,0.6
		s-0.8,1-0.8,1.8c0,0.6,0.3,1.1,0.8,1.5s1.4,0.8,2.6,1.1s2.2,0.7,2.9,1.1c0.7,0.4,1.2,0.9,1.6,1.5c0.3,0.6,0.5,1.2,0.5,2
		c0,1.2-0.5,2.2-1.4,2.9c-0.9,0.7-2.2,1.1-3.8,1.1c-1,0-2-0.2-2.9-0.6s-1.6-0.9-2-1.6c-0.5-0.7-0.7-1.5-0.7-2.3h2
		c0,0.9,0.3,1.6,1,2.1s1.5,0.8,2.7,0.8c1,0,1.8-0.2,2.4-0.6s0.8-1,0.8-1.7s-0.3-1.3-0.8-1.7C95.5,78.8,94.5,78.4,93.2,78z"/>
</g>
</svg>
